<?xml version="1.0" standalone="no"?>
<!DOCTYPE svg PUBLIC "-//W3C//DTD SVG 20010904//EN"
 "http://www.w3.org/TR/2001/REC-SVG-20010904/DTD/svg10.dtd">
<svg version="1.0" xmlns="http://www.w3.org/2000/svg"
 width="500.000000pt" height="500.000000pt" viewBox="0 0 500.000000 500.000000"
 preserveAspectRatio="xMidYMid meet">

<g transform="translate(0.000000,500.000000) scale(0.100000,-0.100000)"
fill="#000000" stroke="none">
<path d="M2745 4304 c-16 -10 -35 -24 -41 -32 -8 -11 -15 -12 -32 -3 -27 14
-74 14 -107 -1 -29 -13 -85 -117 -85 -159 0 -16 -8 -34 -18 -41 -10 -7 -27
-25 -36 -40 l-18 -27 -196 -3 c-183 -3 -203 -6 -287 -32 -49 -15 -94 -32 -100
-36 -5 -5 -80 -31 -165 -60 -135 -45 -160 -50 -206 -44 -80 10 -90 3 -97 -63
-5 -51 -13 -65 -42 -77 -22 -8 13 -41 46 -44 76 -5 138 9 187 43 47 32 127 65
158 65 35 0 218 51 269 76 43 20 66 25 98 21 71 -8 300 -47 305 -51 2 -2 -4
-16 -13 -30 -9 -14 -14 -30 -11 -35 4 -5 1 -13 -5 -16 -9 -6 -49 -88 -49 -100
0 -2 12 -16 27 -31 25 -25 27 -26 34 -8 17 42 8 -17 -17 -121 -33 -137 -81
-245 -118 -265 -16 -8 -47 -35 -70 -61 -22 -25 -51 -51 -63 -57 -26 -14 -60
-82 -72 -145 -5 -26 -5 -87 0 -140 5 -56 5 -128 0 -178 -17 -149 -34 -273 -45
-333 l-11 -58 -100 -51 c-91 -47 -111 -62 -220 -175 -66 -68 -149 -149 -184
-180 -59 -52 -69 -57 -125 -63 -96 -10 -146 -27 -155 -52 -5 -12 -11 -65 -15
-117 -4 -52 -10 -113 -14 -135 -11 -52 9 -168 32 -193 47 -52 101 -29 133 57
28 77 103 210 121 215 9 2 32 7 49 11 46 9 49 22 8 29 -20 4 -35 13 -35 21 0
30 166 166 308 253 79 48 160 97 180 109 21 13 66 35 102 49 94 38 139 90 215
249 61 127 115 267 115 299 0 10 9 16 25 16 24 0 25 2 25 63 l0 62 122 -3
c126 -3 275 -16 285 -25 2 -3 -14 -29 -37 -58 -51 -65 -76 -112 -91 -175 -23
-96 -132 -270 -200 -320 -26 -19 -64 -57 -84 -84 -20 -27 -41 -50 -47 -52 -21
-7 3 -44 55 -81 208 -152 315 -210 378 -205 37 3 44 7 50 31 7 25 3 34 -33 66
-46 43 -71 99 -70 153 1 20 -3 40 -8 43 -6 4 -5 13 2 24 8 14 7 26 -6 51 -16
33 -16 35 8 71 14 21 60 79 103 129 160 188 195 237 253 350 l59 116 -18 39
c-42 93 -259 235 -453 296 -37 12 -68 25 -68 29 0 41 133 218 170 226 14 2 38
12 54 20 16 8 30 13 31 12 118 -177 187 -248 241 -248 32 0 133 136 211 284
37 72 77 141 89 155 76 92 77 196 1 220 -91 28 -92 28 -115 -36 -16 -44 -20
-71 -15 -113 5 -53 4 -57 -46 -130 -28 -42 -68 -92 -89 -113 l-39 -38 -56 113
c-31 62 -59 127 -63 143 -14 62 -52 122 -83 133 -43 15 -101 64 -101 85 0 23
24 69 44 86 12 10 21 9 45 -3 51 -27 67 -21 92 32 13 26 32 57 43 70 19 21 19
24 3 57 -9 20 -17 59 -18 88 -1 126 -59 186 -188 194 -49 3 -74 -1 -96 -13z
m-109 -180 c0 -70 -2 -74 -13 -48 -7 16 -12 36 -13 45 0 14 19 79 24 79 1 0 2
-34 2 -76z"/>
<path d="M4108 3623 c7 -3 16 -2 19 1 4 3 -2 6 -13 5 -11 0 -14 -3 -6 -6z"/>
<path d="M4237 3585 c225 -76 390 -192 478 -335 60 -99 78 -170 78 -305 0
-102 -4 -133 -27 -210 -78 -257 -239 -498 -507 -760 -631 -617 -1578 -1040
-2518 -1125 -183 -17 -481 -8 -631 19 -293 52 -480 138 -615 283 -104 111
-148 235 -149 418 0 79 6 125 22 185 28 100 113 274 187 385 122 180 348 428
544 595 52 44 108 93 125 108 l31 29 -35 -23 c-211 -137 -469 -365 -613 -544
-150 -186 -232 -329 -294 -513 -32 -95 -37 -121 -41 -237 -5 -154 7 -218 69
-344 104 -212 354 -369 699 -440 291 -60 725 -52 1090 20 769 151 1521 514
2081 1006 464 406 700 879 623 1250 -56 272 -258 456 -606 554 -107 30 -102
22 9 -16z"/>
<path d="M4025 3255 c143 -71 229 -162 262 -274 77 -268 -213 -675 -787 -1104
-171 -128 -173 -130 -65 -72 375 199 702 501 834 770 64 130 76 176 76 300 0
98 -3 116 -27 167 -47 100 -151 183 -287 227 -87 28 -88 27 -6 -14z"/>
</g>
</svg>
